<svg xmlns="http://www.w3.org/2000/svg" xmlns:xlink="http://www.w3.org/1999/xlink" version="1.1" x="0px" y="0px" viewBox="0 0 100 100" enable-background="new 0 0 100 100" xml:space="preserve"><path fill="#4286f4" d="M93.273,50.033c0,23.578-19.111,42.693-42.689,42.693S7.895,73.611,7.895,50.033c0-23.575,19.111-42.69,42.689-42.69  S93.273,26.458,93.273,50.033L93.273,50.033z M59.559,26.901c0-2.641-2.136-4.775-4.777-4.775c-2.637,0-4.775,2.134-4.775,4.775  c0,2.632,2.139,4.776,4.775,4.776C57.423,31.677,59.559,29.534,59.559,26.901L59.559,26.901z M61.527,57.973l-6.252-5.759  c-1.371-1.266-3.501-1.177-4.764,0.194c-1.261,1.371-1.176,3.501,0.195,4.763l3.627,3.341c1.554,1.427,2.287,3.527,1.979,5.611  l-1.699,11.395h6.822l2.074-13.934C63.822,61.499,63.08,59.398,61.527,57.973z M46.096,40.545l-8.475,17.601  c-0.253,0.511-0.832,0.776-1.38,0.62l-12.142-3.413l-1.823,6.489l13.407,3.771c2.962,0.835,6.101-0.581,7.443-3.357l10.441-21.689  c0.219-0.447,0.691-0.713,1.188-0.658l4.565,0.497c1.662,0.182,3.324-0.299,4.636-1.337l6.046-4.792  c1.46-1.16,1.705-3.278,0.548-4.738l-2.092-2.641l-2.645,2.093l-3.877,3.075c-1.309,1.042-2.975,1.519-4.633,1.342l-16.773-1.831  c-1.565-0.173-3.13,0.24-4.405,1.16l-5.316,3.826c-1.505,1.092-1.852,3.198-0.763,4.708l1.979,2.734l2.729-1.97l3.21-2.312  c1.274-0.92,2.843-1.333,4.404-1.164l2.793,0.304c0.131,0.013,0.266,0.05,0.384,0.109C46.133,39.254,46.378,39.958,46.096,40.545z   M51.896,72.32c0-2.076-1.68-3.755-3.75-3.755c-2.071,0-3.754,1.679-3.754,3.755c0,2.072,1.683,3.755,3.754,3.755  C50.217,76.075,51.896,74.393,51.896,72.32L51.896,72.32z M53.584,72.32c0-3.004-2.439-5.434-5.438-5.434  c-3.004,0-5.434,2.43-5.434,5.434c0,3,2.43,5.434,5.434,5.434C51.145,77.754,53.584,75.32,53.584,72.32L53.584,72.32z"/></svg>